<?xml version="1.0" encoding="UTF-8" ?>
<!DOCTYPE svg PUBLIC "-//W3C//DTD SVG 1.1//EN" "http://www.w3.org/Graphics/SVG/1.1/DTD/svg11.dtd">
<svg width="1156pt" height="452pt" viewBox="0 0 1156 452" version="1.1" xmlns="http://www.w3.org/2000/svg">
<g id="#faf9f9ff">
</g>
<g id="#fa8d03ff">
<path fill="#fa8d03" opacity="1.00" d=" M 904.37 35.43 C 916.00 33.65 927.26 39.73 934.81 48.21 C 938.34 52.45 942.85 56.39 944.03 62.03 C 945.72 68.53 948.88 75.08 947.39 81.95 C 946.04 85.85 943.86 89.41 942.62 93.35 C 940.10 101.35 933.97 107.49 927.63 112.66 C 919.37 120.21 907.94 123.16 896.98 123.29 C 891.70 122.75 886.44 121.90 881.20 121.04 C 875.92 120.08 872.52 115.60 868.97 112.02 C 867.04 109.87 864.44 107.94 864.01 104.89 C 863.19 100.67 862.08 96.42 862.30 92.08 C 862.28 89.57 862.83 87.02 862.29 84.54 C 860.24 79.45 856.21 74.79 856.43 69.05 C 858.67 61.37 866.61 57.97 872.31 53.25 C 881.71 45.45 891.86 37.08 904.37 35.43 Z" />
</g>
<g id="#da0711ff">
<path fill="#da0711" opacity="1.00" d=" M 985.17 63.21 C 986.20 58.01 987.35 52.77 989.92 48.08 C 996.61 53.25 1001.10 60.60 1006.59 66.92 C 1012.09 64.83 1016.53 60.81 1020.85 56.94 C 1023.46 54.53 1027.67 53.06 1030.84 55.30 C 1034.00 57.76 1037.20 60.50 1038.89 64.24 C 1039.86 66.32 1041.49 67.94 1043.10 69.55 C 1051.19 67.21 1058.98 63.89 1067.33 62.49 C 1070.82 66.47 1070.01 72.27 1068.61 76.95 C 1066.74 82.24 1065.51 87.77 1063.00 92.81 C 1060.57 97.86 1057.03 102.41 1055.56 107.90 C 1054.73 111.65 1051.83 114.39 1050.45 117.88 C 1047.93 126.12 1042.74 133.16 1038.16 140.35 C 1031.72 147.63 1029.18 157.42 1022.80 164.72 C 1019.56 168.20 1016.95 172.21 1013.51 175.50 C 1010.11 178.78 1006.76 182.12 1003.64 185.66 C 999.96 189.80 994.52 191.71 990.64 195.62 C 986.94 199.41 982.10 202.01 978.92 206.30 C 976.72 212.19 979.85 218.28 980.32 224.21 C 980.52 228.24 982.88 231.90 982.54 236.00 C 982.12 241.10 980.44 245.99 979.66 251.04 C 979.10 255.71 975.36 259.01 973.27 263.02 C 975.79 273.18 985.92 278.27 995.07 281.23 C 993.16 285.42 988.24 287.05 985.87 290.97 C 988.69 294.41 992.73 296.37 996.18 299.05 C 993.02 302.68 987.47 302.89 984.81 306.98 C 989.34 309.29 994.40 310.26 998.92 312.61 C 998.44 313.52 998.54 314.88 997.57 315.46 C 992.56 318.32 986.76 319.34 981.07 319.63 C 969.88 320.83 958.40 319.91 947.66 316.47 C 941.83 314.55 935.61 315.75 929.70 316.64 C 919.08 318.58 908.29 321.49 897.47 319.51 C 893.92 316.49 891.40 311.76 892.41 307.01 C 892.95 304.36 891.66 300.97 893.97 298.97 C 897.69 295.66 899.72 290.86 900.32 285.99 C 900.23 281.17 895.83 278.29 893.99 274.20 C 890.69 267.13 890.96 259.03 888.20 251.78 C 885.37 245.16 887.40 237.88 887.63 230.98 C 890.25 217.42 900.15 206.91 905.27 194.36 C 906.56 190.48 907.91 186.28 906.90 182.19 C 905.98 178.24 905.92 174.15 904.83 170.24 C 903.17 164.51 905.87 158.63 908.83 153.82 C 915.57 144.49 927.43 141.75 936.67 135.72 C 941.15 132.59 946.80 131.60 950.97 127.97 C 957.60 122.35 961.91 114.64 966.40 107.32 C 967.89 104.97 968.63 102.27 969.75 99.74 C 971.30 97.04 973.67 94.87 974.89 91.97 C 976.95 87.10 977.73 81.78 979.91 76.95 C 981.99 72.51 983.77 67.91 985.17 63.21 Z" />
</g>
<g id="#027628ff">
<path fill="#027628" opacity="1.00" d=" M 789.77 76.94 C 790.40 76.55 791.67 75.76 792.31 75.36 C 803.82 86.48 807.82 103.38 820.15 113.84 C 824.63 117.37 827.52 122.67 832.72 125.35 C 837.01 128.28 842.54 128.37 846.80 131.34 C 849.72 133.39 853.28 133.96 856.66 134.85 C 859.91 135.64 862.74 137.62 866.06 138.22 C 869.69 138.66 871.87 141.99 875.12 143.32 C 878.98 144.70 881.15 148.41 883.51 151.51 C 886.22 154.97 885.97 159.63 885.45 163.75 C 884.22 170.92 880.02 177.05 877.61 183.82 C 875.98 188.22 876.07 193.03 874.37 197.42 C 870.92 207.46 874.24 217.95 875.70 228.03 C 876.64 232.65 876.54 237.38 876.64 242.07 C 877.04 246.71 874.43 250.83 874.11 255.38 C 872.83 266.19 865.32 274.63 858.36 282.40 C 854.29 286.68 855.83 293.08 856.28 298.36 C 856.65 303.76 856.47 310.35 851.94 314.09 C 842.54 317.64 832.43 320.45 822.31 318.95 C 818.16 318.64 814.23 317.14 810.09 316.75 C 807.28 316.66 805.58 313.88 802.91 313.40 C 787.74 312.51 772.52 312.72 757.34 312.38 C 756.45 306.43 763.18 304.81 766.68 301.67 C 766.64 301.33 766.56 300.66 766.52 300.33 C 764.04 298.45 761.02 297.34 758.88 295.00 C 761.62 292.97 764.81 291.59 767.47 289.44 C 769.52 287.83 768.94 284.49 767.07 282.99 C 764.11 280.56 760.65 278.75 758.18 275.76 C 764.80 269.65 774.21 267.92 782.90 267.27 C 785.63 267.17 788.01 265.62 790.23 264.17 C 792.07 261.75 793.55 258.98 794.44 256.07 C 793.30 252.03 791.77 247.90 792.70 243.64 C 793.65 238.39 793.27 232.98 794.79 227.83 C 795.68 221.81 798.52 216.34 799.82 210.43 C 801.11 207.33 803.02 204.53 804.70 201.63 C 808.88 196.32 806.44 188.83 803.62 183.45 C 801.41 178.80 795.73 178.12 792.44 174.58 C 788.43 170.56 785.07 165.95 780.95 162.04 C 775.29 154.33 773.19 144.45 766.82 137.18 C 765.54 135.52 763.63 134.21 763.10 132.09 C 761.66 127.12 758.95 122.64 757.63 117.63 C 755.64 113.00 753.62 108.37 752.32 103.49 C 758.14 100.33 763.67 106.89 769.47 104.48 C 769.34 100.06 768.79 95.52 770.19 91.23 C 775.21 91.04 780.03 93.07 785.04 92.77 C 787.17 92.93 788.32 90.64 788.47 88.82 C 788.86 84.86 788.99 80.86 789.77 76.94 Z" />
</g>
<g id="#010000ff">
<path fill="#010000" opacity="1.00" d=" M 209.31 89.19 C 219.08 87.81 229.25 86.58 238.90 89.32 C 244.22 90.84 249.03 94.77 250.78 100.13 C 252.62 105.83 252.10 112.55 248.43 117.44 C 246.20 120.64 242.73 122.64 239.25 124.23 C 245.66 127.09 248.29 134.10 249.53 140.52 C 250.81 146.17 252.25 151.79 254.08 157.30 C 251.07 157.26 248.05 157.44 245.05 157.24 C 240.25 149.30 241.97 138.48 235.93 131.05 C 231.32 126.34 224.22 127.70 218.29 127.53 C 218.32 137.46 218.28 147.38 218.31 157.30 C 215.30 157.32 212.28 157.29 209.27 157.32 C 209.30 134.61 209.21 111.90 209.31 89.19 M 218.33 95.67 C 218.27 103.93 218.33 112.20 218.29 120.46 C 224.72 120.27 231.93 121.60 237.50 117.56 C 244.19 113.17 244.39 101.72 237.42 97.51 C 231.67 94.11 224.66 94.83 218.33 95.67 Z" />
<path fill="#010000" opacity="1.00" d=" M 296.57 91.58 C 305.40 85.49 317.35 86.33 326.85 90.36 C 326.11 92.95 325.27 95.51 324.43 98.06 C 317.83 95.12 309.63 93.10 303.00 97.00 C 297.66 100.14 296.90 108.39 301.65 112.40 C 308.29 117.99 317.78 118.76 324.07 124.92 C 332.60 132.62 330.99 148.20 321.24 154.20 C 311.16 160.38 297.95 159.10 287.70 153.97 C 288.49 151.36 289.31 148.75 290.09 146.14 C 297.25 149.98 306.14 152.27 313.94 148.99 C 319.89 146.49 322.12 138.52 318.74 133.13 C 315.93 128.68 310.66 126.83 305.98 125.04 C 300.55 123.05 295.08 120.15 291.78 115.23 C 286.91 107.70 289.09 96.60 296.57 91.58 Z" />
<path fill="#010000" opacity="1.00" d=" M 447.44 87.80 C 455.92 86.29 465.27 87.43 472.33 92.69 C 480.07 98.29 484.23 107.71 485.13 117.04 C 486.06 127.59 484.29 139.03 477.44 147.45 C 468.23 159.04 450.28 161.65 437.67 154.33 C 429.42 149.56 424.34 140.52 422.93 131.27 C 421.27 121.07 422.59 110.04 428.16 101.17 C 432.39 94.31 439.55 89.41 447.44 87.80 M 448.40 95.44 C 441.08 97.34 436.02 103.90 433.84 110.86 C 430.71 120.74 431.29 132.19 436.83 141.12 C 440.21 146.69 446.37 150.82 453.01 150.73 C 459.72 151.22 466.51 147.80 470.15 142.16 C 475.21 134.60 476.57 124.97 475.15 116.10 C 474.01 109.89 471.42 103.66 466.63 99.39 C 461.79 95.00 454.61 93.68 448.40 95.44 Z" />
<path fill="#010000" opacity="1.00" d=" M 81.68 88.24 C 98.79 88.28 115.89 88.27 133.00 88.25 C 132.99 90.83 133.00 93.41 133.00 95.99 C 126.00 96.01 119.00 95.99 112.00 96.00 C 111.99 116.43 112.02 136.87 111.99 157.30 C 108.89 157.30 105.79 157.31 102.69 157.31 C 102.70 136.88 102.66 116.45 102.69 96.02 C 95.69 95.99 88.68 96.02 81.68 95.98 C 81.67 93.40 81.67 90.82 81.68 88.24 Z" />
<path fill="#010000" opacity="1.00" d=" M 141.66 88.25 C 144.68 88.25 147.71 88.27 150.73 88.28 C 150.73 101.18 150.72 114.08 150.72 126.99 C 150.92 133.16 151.24 139.82 154.95 145.04 C 160.23 152.61 172.96 152.77 178.67 145.62 C 182.06 141.62 183.07 136.16 183.26 131.05 C 183.30 116.78 183.24 102.52 183.28 88.25 C 186.35 88.25 189.43 88.25 192.51 88.26 C 192.52 102.20 192.51 116.14 192.53 130.08 C 192.45 137.64 190.60 145.65 185.32 151.33 C 180.38 156.50 172.97 158.58 165.97 158.36 C 159.35 158.48 152.37 156.18 148.02 150.99 C 143.36 145.49 141.89 138.07 141.67 131.04 C 141.70 116.78 141.68 102.51 141.66 88.25 Z" />
<path fill="#010000" opacity="1.00" d=" M 265.25 88.26 C 268.34 88.27 271.43 88.25 274.52 88.25 C 274.47 111.29 274.63 134.34 274.44 157.38 C 271.38 157.31 268.32 157.28 265.26 157.32 C 265.26 134.30 265.28 111.28 265.25 88.26 Z" />
<path fill="#010000" opacity="1.00" d=" M 345.88 88.29 C 349.77 88.25 353.66 88.23 357.55 88.30 C 363.87 106.96 371.26 125.29 376.09 144.43 C 381.42 125.32 388.95 106.94 395.64 88.28 C 399.52 88.25 403.39 88.27 407.27 88.25 C 408.66 111.28 410.09 134.30 411.58 157.32 C 408.56 157.31 405.55 157.30 402.54 157.32 C 401.37 137.61 400.23 117.90 399.59 98.17 C 393.64 117.98 385.95 137.20 379.11 156.71 C 376.71 156.73 374.32 156.76 371.93 156.72 C 365.55 137.32 358.10 118.24 353.13 98.40 C 352.33 118.05 351.13 137.68 349.89 157.30 C 346.99 157.31 344.09 157.31 341.20 157.34 C 342.57 134.31 344.43 111.32 345.88 88.29 Z" />
<path fill="#010000" opacity="1.00" d=" M 521.07 89.21 C 533.44 87.56 546.44 86.37 558.46 90.55 C 568.12 93.85 575.36 102.72 577.11 112.72 C 578.25 119.78 578.08 127.16 576.09 134.06 C 573.71 142.28 568.12 149.78 560.21 153.35 C 548.04 159.20 534.10 157.98 521.03 157.12 C 520.98 134.48 520.92 111.84 521.07 89.21 M 530.31 95.88 C 530.32 113.97 530.29 132.06 530.32 150.14 C 539.07 150.90 548.52 150.93 556.31 146.29 C 563.52 142.16 567.30 133.84 567.97 125.81 C 569.12 116.58 566.87 105.79 558.86 100.13 C 550.60 94.32 539.89 94.50 530.31 95.88 Z" />
<path fill="#010000" opacity="1.00" d=" M 590.25 88.24 C 602.74 88.28 615.24 88.23 627.73 88.25 C 627.74 90.82 627.75 93.39 627.76 95.96 C 618.34 96.05 608.93 95.97 599.51 96.01 C 599.52 103.16 599.49 110.32 599.54 117.48 C 608.46 117.49 617.37 117.47 626.29 117.49 C 626.29 119.98 626.32 122.47 626.34 124.97 C 617.40 125.05 608.47 124.97 599.55 125.03 C 599.48 133.17 599.52 141.32 599.54 149.47 C 609.46 149.47 619.38 149.49 629.30 149.45 C 629.29 152.06 629.31 154.67 629.30 157.28 C 616.29 157.36 603.28 157.28 590.28 157.32 C 590.25 134.30 590.28 111.27 590.25 88.24 Z" />
<path fill="#010000" opacity="1.00" d=" M 145.41 217.67 C 155.03 216.62 165.12 218.38 173.29 223.74 C 184.94 231.05 191.48 244.57 192.80 257.96 C 194.61 273.23 191.26 290.02 180.47 301.49 C 165.92 316.90 139.05 317.80 123.40 303.60 C 114.66 295.85 110.02 284.39 108.81 272.95 C 107.35 258.76 109.84 243.38 119.04 232.06 C 125.47 223.99 135.19 218.83 145.41 217.67 M 144.52 234.54 C 138.55 237.28 135.17 243.53 133.67 249.66 C 131.51 258.70 131.35 268.16 132.77 277.32 C 133.70 282.60 135.43 287.93 138.97 292.06 C 143.53 297.18 151.54 298.81 157.70 295.75 C 163.45 293.22 166.59 287.17 168.14 281.39 C 170.32 272.53 170.45 263.24 169.11 254.24 C 168.13 248.14 166.05 241.86 161.54 237.44 C 157.10 233.17 150.12 232.06 144.52 234.54 Z" />
<path fill="#010000" opacity="1.00" d=" M 492.06 222.22 C 506.88 215.38 523.96 216.38 539.53 219.79 C 539.52 225.33 539.51 230.88 539.51 236.42 C 527.68 234.24 514.78 232.08 503.45 237.43 C 494.39 241.54 489.14 251.25 488.39 260.89 C 487.41 270.90 488.84 282.27 496.33 289.66 C 502.16 295.55 510.94 297.27 518.94 296.34 C 519.02 289.36 519.00 282.38 518.94 275.40 C 514.18 274.77 509.44 274.06 504.69 273.39 C 504.69 268.83 504.70 264.27 504.70 259.72 C 516.79 259.69 528.87 259.68 540.96 259.71 C 541.08 276.48 541.06 293.25 540.96 310.02 C 526.87 313.78 511.74 315.12 497.47 311.56 C 485.58 308.62 474.69 300.77 469.42 289.54 C 464.29 278.54 463.47 265.76 466.04 253.98 C 469.03 240.04 479.10 228.04 492.06 222.22 Z" />
<path fill="#010000" opacity="1.00" d=" M 583.05 218.28 C 590.28 218.26 597.50 218.25 604.73 218.30 C 616.41 249.54 628.15 280.76 639.90 311.97 C 631.79 312.00 623.69 312.02 615.58 311.98 C 613.69 305.65 611.69 299.36 609.82 293.03 C 599.82 292.98 589.82 292.96 579.83 293.06 C 578.17 299.37 576.36 305.65 574.71 311.97 C 566.61 312.02 558.50 312.02 550.39 311.97 C 561.31 280.75 572.10 249.48 583.05 218.28 M 593.86 240.95 C 590.59 252.51 587.54 264.14 584.22 275.69 C 591.00 275.68 597.79 275.75 604.57 275.65 C 601.00 264.08 597.41 252.52 593.86 240.95 Z" />
<path fill="#010000" opacity="1.00" d=" M 34.98 218.98 C 46.94 219.20 58.93 218.53 70.86 219.56 C 78.93 220.48 87.46 222.69 93.20 228.82 C 99.91 235.80 101.09 246.41 99.29 255.55 C 97.76 263.28 92.12 269.68 85.18 273.16 C 76.61 277.43 66.98 279.01 57.50 279.66 C 57.55 290.44 57.50 301.21 57.53 311.99 C 50.01 312.01 42.49 312.00 34.97 312.00 C 34.97 280.99 34.97 249.99 34.98 218.98 M 57.51 234.51 C 57.54 244.27 57.49 254.03 57.53 263.79 C 64.50 263.57 72.25 262.67 77.32 257.32 C 82.27 252.27 81.71 243.22 76.25 238.76 C 71.20 234.17 63.88 234.49 57.51 234.51 Z" />
<path fill="#010000" opacity="1.00" d=" M 207.72 219.01 C 220.29 219.19 232.89 218.47 245.43 219.65 C 253.77 220.74 262.69 222.99 268.60 229.41 C 275.32 236.46 276.10 247.21 274.19 256.31 C 272.34 264.68 264.97 270.26 257.37 273.22 C 264.65 286.08 271.67 299.10 278.96 311.96 C 271.28 312.03 263.61 311.99 255.94 312.00 C 250.49 300.36 244.82 288.83 239.48 277.14 C 236.35 277.43 233.21 277.58 230.07 277.72 C 229.96 289.14 230.05 300.57 230.01 311.99 C 222.57 312.01 215.13 312.01 207.68 311.99 C 207.70 281.00 207.69 250.01 207.72 219.01 M 230.06 234.49 C 229.96 243.90 230.05 253.32 230.04 262.73 C 236.05 262.70 242.38 262.74 247.85 259.88 C 252.31 257.69 255.97 253.17 255.75 248.00 C 255.90 243.41 253.06 239.01 248.97 237.01 C 243.14 234.05 236.40 234.56 230.06 234.49 Z" />
<path fill="#010000" opacity="1.00" d=" M 285.99 219.03 C 309.77 218.97 333.55 218.99 357.33 219.02 C 357.29 225.11 357.33 231.20 357.30 237.29 C 349.05 237.32 340.80 237.32 332.55 237.29 C 332.48 262.19 332.53 287.09 332.53 311.99 C 325.17 312.01 317.82 312.01 310.47 311.99 C 310.47 287.09 310.53 262.20 310.44 237.31 C 302.30 237.30 294.16 237.30 286.02 237.32 C 285.96 231.23 285.98 225.13 285.99 219.03 Z" />
<path fill="#010000" opacity="1.00" d=" M 371.48 219.08 C 378.89 218.93 386.31 219.00 393.73 219.02 C 393.72 238.69 393.71 258.37 393.72 278.05 C 394.00 283.82 395.13 290.27 399.77 294.21 C 404.17 297.92 410.32 298.11 415.76 297.47 C 420.93 296.79 425.58 293.13 427.37 288.22 C 428.70 284.65 429.25 280.82 429.29 277.03 C 429.26 257.70 429.27 238.37 429.28 219.04 C 436.69 218.96 444.10 219.01 451.52 219.02 C 451.49 236.01 451.52 253.00 451.52 270.00 C 451.78 280.24 451.06 291.29 444.88 299.90 C 438.98 308.35 428.67 312.37 418.72 313.32 C 410.44 313.87 401.91 313.82 393.97 311.08 C 386.32 308.67 379.48 303.34 375.90 296.09 C 372.50 289.65 371.56 282.25 371.46 275.06 C 371.50 256.40 371.51 237.74 371.48 219.08 Z" />
<path fill="#010000" opacity="1.00" d=" M 651.67 219.05 C 659.12 218.97 666.56 218.99 674.01 219.03 C 674.06 244.49 673.88 269.94 674.08 295.40 C 685.85 294.05 697.67 293.26 709.52 293.72 C 709.51 299.81 709.52 305.90 709.52 311.99 C 690.24 312.02 670.96 312.00 651.68 311.99 C 651.68 281.01 651.70 250.03 651.67 219.05 Z" />
</g>
<g id="#0362a9ff">
<path fill="#0362a9" opacity="1.00" d=" M 1042.07 299.34 C 1046.34 298.31 1050.61 295.62 1055.12 297.03 C 1063.23 299.15 1071.46 300.95 1079.38 303.75 C 1083.90 305.39 1085.19 310.52 1088.06 313.89 C 1093.65 319.86 1097.23 327.48 1099.59 335.23 C 1101.43 341.11 1100.40 347.25 1098.82 353.03 C 1099.35 358.50 1099.12 364.28 1096.13 369.09 C 1092.00 376.39 1085.13 381.62 1080.68 388.71 C 1078.76 392.04 1075.50 394.21 1072.43 396.38 C 1070.13 398.10 1067.11 397.83 1064.46 398.47 C 1061.67 399.15 1058.95 400.19 1056.06 400.27 C 1049.67 400.48 1043.41 402.93 1036.98 401.85 C 1026.75 400.90 1017.40 395.83 1009.56 389.41 C 999.82 381.55 991.54 372.11 982.48 363.52 C 977.15 359.48 971.27 356.11 964.95 353.91 C 963.59 353.39 962.34 354.54 961.14 354.99 C 954.30 359.11 945.38 360.59 940.77 367.75 C 938.84 371.07 937.20 376.54 932.26 375.53 C 928.12 376.12 925.23 373.11 922.41 370.63 C 922.56 367.71 921.97 364.66 922.94 361.85 C 928.38 357.97 934.36 354.83 939.54 350.54 C 943.24 347.22 947.98 345.50 952.33 343.24 C 958.69 343.34 965.10 343.00 971.44 343.71 C 980.23 345.47 987.73 350.87 994.42 356.59 C 997.56 359.42 1001.18 361.80 1003.65 365.31 C 1008.00 371.20 1012.60 377.13 1018.76 381.25 C 1021.39 383.04 1024.53 383.96 1027.00 386.01 C 1028.24 386.90 1029.38 388.09 1030.95 388.41 C 1038.19 389.61 1045.61 389.69 1052.79 388.06 C 1063.39 384.39 1074.07 379.17 1080.87 369.90 C 1082.53 367.14 1083.36 363.97 1084.35 360.93 C 1084.30 357.71 1083.29 354.47 1084.37 351.30 C 1086.72 342.98 1084.03 334.30 1080.38 326.79 C 1078.69 323.60 1077.32 319.88 1074.00 318.03 C 1069.41 315.27 1065.15 311.59 1059.92 310.13 C 1051.54 309.11 1042.43 308.86 1034.72 312.79 C 1030.76 314.58 1030.26 319.48 1027.01 322.00 C 1025.63 323.49 1023.19 324.68 1023.43 327.03 C 1023.60 330.83 1023.20 335.10 1025.71 338.29 C 1027.90 341.07 1030.57 343.43 1033.15 345.86 C 1035.21 348.27 1038.74 347.23 1041.38 348.56 C 1044.66 349.62 1048.05 352.40 1051.61 350.84 C 1055.37 349.05 1057.46 345.23 1059.82 342.00 C 1059.00 339.40 1058.36 336.75 1057.71 334.11 C 1059.44 332.01 1061.01 329.79 1062.59 327.56 C 1063.49 327.56 1064.40 327.55 1065.33 327.54 C 1067.77 332.44 1071.53 337.16 1070.73 342.99 C 1070.04 349.19 1068.30 356.10 1063.07 360.06 C 1058.99 363.53 1053.71 366.36 1048.20 365.61 C 1040.27 364.64 1032.38 361.90 1026.08 356.88 C 1021.44 353.13 1017.92 348.23 1014.74 343.23 C 1012.78 339.99 1011.17 336.21 1011.63 332.35 C 1012.32 328.73 1013.79 325.32 1014.95 321.83 C 1017.59 312.80 1023.94 304.71 1032.40 300.49 C 1035.37 298.70 1038.89 300.23 1042.07 299.34 Z" />
<path fill="#0362a9" opacity="1.00" d=" M 857.20 337.16 C 864.05 334.27 871.95 335.76 878.52 338.70 C 889.82 344.14 897.03 354.87 904.49 364.49 C 908.61 369.62 912.20 375.48 917.81 379.15 C 926.54 384.33 937.60 384.47 947.03 381.18 C 954.98 378.00 959.79 370.32 967.10 366.10 C 969.26 367.23 971.42 368.37 973.58 369.52 C 966.79 377.64 960.94 387.59 950.65 391.66 C 939.32 395.08 926.73 396.19 915.62 391.41 C 912.79 389.98 910.05 388.34 907.49 386.49 C 900.82 379.45 895.12 371.56 888.81 364.20 C 885.22 358.31 880.08 353.22 873.92 350.11 C 867.62 348.45 860.78 348.00 854.42 349.55 C 845.75 352.43 841.74 361.68 834.03 366.03 C 830.76 367.88 827.54 369.98 825.23 372.99 C 828.17 373.76 831.36 374.37 834.32 373.28 C 840.74 370.50 844.33 363.12 851.48 361.71 C 860.71 360.10 869.89 365.53 874.75 373.20 C 877.88 378.65 884.56 382.63 883.78 389.70 C 881.33 390.55 878.28 391.90 875.95 390.04 C 869.36 385.30 863.47 379.66 857.84 373.84 C 854.11 374.54 850.59 376.00 846.94 376.99 C 841.33 378.25 838.84 385.16 832.90 385.69 C 823.27 386.78 814.74 380.80 805.34 380.46 C 799.77 371.81 797.63 361.47 792.04 352.84 C 790.30 350.66 787.10 351.82 784.72 351.19 C 783.49 350.33 782.55 349.15 781.53 348.10 C 772.27 348.19 765.09 355.29 760.92 362.94 C 758.20 367.09 759.50 372.51 761.27 376.77 C 764.91 383.00 772.89 383.49 778.13 387.76 C 781.32 387.82 785.06 387.52 787.24 384.84 C 787.87 380.05 786.39 374.51 782.29 371.62 C 779.61 369.49 776.53 371.78 774.01 373.00 C 770.57 374.63 766.70 376.77 762.86 375.23 C 763.49 372.06 763.23 368.21 766.02 365.98 C 771.89 360.86 780.43 361.49 787.62 362.58 C 793.34 363.63 795.48 369.74 797.62 374.38 C 798.94 377.85 802.53 380.66 801.67 384.71 C 800.64 390.94 794.91 394.63 790.71 398.74 C 788.26 401.35 784.58 402.55 781.05 402.03 C 775.58 401.22 770.49 398.69 764.93 398.35 C 759.01 398.02 753.86 394.17 750.53 389.48 C 746.57 382.19 745.89 373.54 746.70 365.41 C 747.33 358.21 751.35 351.36 757.41 347.40 C 766.47 340.35 778.51 336.24 789.93 339.09 C 796.94 341.04 801.54 347.27 804.47 353.59 C 807.94 360.29 809.99 368.24 816.07 373.18 C 818.54 368.90 820.62 364.40 823.16 360.16 C 826.86 355.58 830.26 350.59 835.17 347.19 C 838.04 344.54 841.64 342.97 844.84 340.79 C 848.47 338.23 853.20 338.79 857.20 337.16 Z" />
</g>
</svg>
